<svg width="435" height="350" viewBox="0 0 435 350" fill="none" xmlns="http://www.w3.org/2000/svg">
<path d="M102 -3.05176e-05V122.5H171.5L176.5 63.5H190L223 65.5V284.5L190 286.5V350H346V286.5L313 284.5V65.5L346 63.5H360.5L365.5 122.5H435V-3.05176e-05H102Z" fill="white"/>
<g clip-path="url(#clip0_0_1)">
<path d="M189.324 166.816C189.409 162.661 187.841 158.713 184.964 155.839L146.052 116.99C143.175 114.117 139.224 112.554 135.069 112.646C130.914 112.738 126.895 114.476 123.897 117.479L83.3586 158.083C80.3613 161.086 78.63 165.108 78.5456 169.262L76.7315 257.888C76.6471 262.042 78.2161 265.99 81.0934 268.862C83.9707 271.735 87.9208 273.298 92.0749 273.207L171.525 271.452C175.679 271.36 179.697 269.621 182.694 266.619C185.692 263.616 187.424 259.596 187.51 255.442L189.324 166.816V166.816ZM122.763 172.87C119.885 169.995 118.317 166.046 118.403 161.889C118.489 157.733 120.223 153.711 123.222 150.708C126.222 147.705 130.242 145.967 134.398 145.876C138.554 145.786 142.505 147.35 145.383 150.224C148.261 153.099 149.829 157.049 149.743 161.205C149.657 165.361 147.924 169.383 144.924 172.386C141.924 175.389 137.904 177.127 133.748 177.218C129.592 177.309 125.641 175.745 122.763 172.87V172.87Z" fill="#D61C1C"/>
</g>
<defs>
<clipPath id="clip0_0_1">
<rect width="184" height="192" fill="white" transform="translate(135.655 84) rotate(44.9538)"/>
</clipPath>
</defs>
</svg>
