<svg width="542" height="498" viewBox="0 0 542 498" fill="none" xmlns="http://www.w3.org/2000/svg">
<mask id="mask0_0_1" style="mask-type:alpha" maskUnits="userSpaceOnUse" x="0" y="-2" width="500" height="500">
<circle cx="250" cy="248" r="250" fill="white"/>
</mask>
<g mask="url(#mask0_0_1)">
<rect x="-66" width="672" height="527" fill="white"/>
<path d="M19 69V228.6H115.215L122.137 151.731H140.826L186.511 154.337V439.663L140.826 442.269V525H356.79V442.269L311.105 439.663V154.337L356.79 151.731H376.863L383.785 228.6H480V69H19Z" fill="black"/>
</g>
<g clip-path="url(#clip0_0_1)">
<path d="M465.324 271.816C465.409 267.661 463.841 263.713 460.964 260.839L422.052 221.99C419.175 219.117 415.224 217.554 411.069 217.646C406.914 217.738 402.895 219.476 399.897 222.479L359.359 263.083C356.361 266.086 354.63 270.108 354.546 274.262L352.732 362.888C352.647 367.042 354.216 370.99 357.093 373.862C359.971 376.735 363.921 378.298 368.075 378.207L447.525 376.452C451.679 376.36 455.697 374.621 458.694 371.619C461.692 368.616 463.424 364.596 463.51 360.442L465.324 271.816V271.816ZM398.763 277.87C395.885 274.995 394.317 271.046 394.403 266.889C394.489 262.733 396.223 258.711 399.222 255.708C402.222 252.705 406.242 250.967 410.398 250.876C414.554 250.786 418.505 252.35 421.383 255.224C424.261 258.099 425.829 262.049 425.743 266.205C425.657 270.361 423.924 274.383 420.924 277.386C417.924 280.389 413.904 282.127 409.748 282.218C405.592 282.309 401.641 280.745 398.763 277.87V277.87Z" fill="#D61C1C"/>
</g>
<defs>
<clipPath id="clip0_0_1">
<rect width="184" height="192" fill="white" transform="translate(411.655 189) rotate(44.9538)"/>
</clipPath>
</defs>
</svg>
