<svg width="359" height="350" viewBox="0 0 359 350" fill="none" xmlns="http://www.w3.org/2000/svg">
<path d="M26 -3.05176e-05V122.5H95.5L100.5 63.5H114L147 65.5V284.5L114 286.5V350H270V286.5L237 284.5V65.5L270 63.5H284.5L289.5 122.5H359V-3.05176e-05H26Z" fill="black"/>
<path d="M113.324 166.816C113.409 162.661 111.841 158.713 108.964 155.839L70.0524 116.99C67.1746 114.117 63.2235 112.554 59.0686 112.646C54.9136 112.738 50.895 114.476 47.8968 117.479L7.35861 158.083C4.36131 161.086 2.63004 165.108 2.54563 169.262L0.731533 257.888C0.647125 262.042 2.21609 265.99 5.0934 268.862C7.97071 271.735 11.9208 273.298 16.0749 273.207L95.525 271.452C99.6792 271.36 103.697 269.621 106.694 266.619C109.692 263.616 111.424 259.596 111.51 255.442L113.324 166.816V166.816ZM46.763 172.87C43.8852 169.995 42.3168 166.046 42.4029 161.889C42.489 157.733 44.2225 153.711 47.2222 150.708C50.2218 147.705 54.2418 145.967 58.3978 145.876C62.5538 145.786 66.5054 147.35 69.3832 150.224C72.2611 153.099 73.8295 157.049 73.7433 161.205C73.6572 165.361 71.9237 169.383 68.9241 172.386C65.9244 175.389 61.9044 177.127 57.7484 177.218C53.5924 177.309 49.6409 175.745 46.763 172.87V172.87Z" fill="#D61C1C"/>
</svg>
