<svg width="516" height="500" viewBox="0 0 516 500" fill="none" xmlns="http://www.w3.org/2000/svg">
<circle cx="266" cy="250" r="250" fill="white"/>
<path d="M99 82V204.5H168.5L173.5 145.5H187L220 147.5V366.5L187 368.5V432H343V368.5L310 366.5V147.5L343 145.5H357.5L362.5 204.5H432V82H99Z" fill="black"/>
<g clip-path="url(#clip0_0_1)">
<path d="M189.324 241.816C189.409 237.661 187.841 233.713 184.964 230.839L146.052 191.99C143.175 189.117 139.224 187.554 135.069 187.646C130.914 187.738 126.895 189.476 123.897 192.479L83.3586 233.083C80.3613 236.086 78.63 240.108 78.5456 244.262L76.7315 332.888C76.6471 337.042 78.2161 340.99 81.0934 343.862C83.9707 346.735 87.9208 348.298 92.0749 348.207L171.525 346.452C175.679 346.36 179.697 344.621 182.694 341.619C185.692 338.616 187.424 334.596 187.51 330.442L189.324 241.816ZM122.763 247.87C119.885 244.995 118.317 241.046 118.403 236.889C118.489 232.733 120.223 228.711 123.222 225.708C126.222 222.705 130.242 220.967 134.398 220.876C138.554 220.786 142.505 222.35 145.383 225.224C148.261 228.099 149.829 232.049 149.743 236.205C149.657 240.361 147.924 244.383 144.924 247.386C141.924 250.389 137.904 252.127 133.748 252.218C129.592 252.309 125.641 250.745 122.763 247.87Z" fill="#D61C1C"/>
</g>
<defs>
<clipPath id="clip0_0_1">
<rect width="184" height="192" fill="white" transform="translate(135.655 159) rotate(44.9538)"/>
</clipPath>
</defs>
</svg>
